<svg xmlns="http://www.w3.org/2000/svg" viewBox="0 0 75.35 88.03" width="75.35" height="88.03">
  <g fill="none" stroke="#000" stroke-width="6">
    <path d="M65.63 8.65c0 3.4 2.75 6.15 6.15 6.15m-6.15 0c-3.4 0-6.15 2.75-6.15 6.15m12.3 0c0 3.4-2.75 6.15-6.15 6.15m-52.96 61.42c0-3.4-2.75-6.15-6.15-6.15m6.15 0c3.4 0 6.15-2.75 6.15-6.15m-12.3 0c0-3.4 2.75-6.15 6.15-6.15M9.72 23.55c3.4 0 6.15-2.75 6.15-6.15m0 0c0-3.4-2.75-6.15-6.15-6.15m0 12.3c-3.4 0-6.15 2.75-6.15 6.15m0 41.62c0 3.4 2.75 6.15 6.15 6.15m-6.15 0c-3.4 0-6.15 2.75-6.15 6.15m12.3 0c0-3.4-2.75-6.15-6.15-6.15m41.62 6.15c-3.4 0-6.15-2.75-6.15-6.15m6.15 0c3.4 0 6.15-2.75 6.15-6.15m-12.3 0c0-3.4 2.75-6.15 6.15-6.15"/>
  </g>
</svg>
